<svg width="252" height="47" viewBox="0 0 252 47" fill="none" xmlns="http://www.w3.org/2000/svg">
<rect x="205.08" width="46" height="47" rx="15" fill="#1F6FEB"/>
<path d="M227.68 10.2C228.96 11.32 230.653 12.64 232.76 14.16C234.093 15.12 235.093 15.8933 235.76 16.48C236.427 17.0667 236.947 17.7333 237.32 18.48C237.693 19.2267 237.88 20.1333 237.88 21.2C237.88 22.7733 237.6 24.5067 237.04 26.4C236.507 28.2667 235.84 29.96 235.04 31.48C234.267 33 233.547 34.04 232.88 34.6C232.16 35.2133 231.08 35.7333 229.64 36.16C228.2 36.5867 226.747 36.8 225.28 36.8C223.493 36.8 222.107 36.32 221.12 35.36C220.16 34.3733 219.68 32.9867 219.68 31.2C219.68 30.0533 219.733 28.9333 219.84 27.84C219.973 26.7467 220.187 25.2 220.48 23.2H220.68V24.8C220.68 25.6533 221.053 26.3067 221.8 26.76C222.573 27.1867 223.867 27.4 225.68 27.4C228.08 27.4 230.453 27.1733 232.8 26.72C235.147 26.24 236.64 25.7333 237.28 25.2C237.2 24.9333 236.907 24.6533 236.4 24.36C235.893 24.04 235.08 23.6133 233.96 23.08C232.147 22.2 230.56 21.36 229.2 20.56C227.84 19.7333 226.533 18.7467 225.28 17.6L227.68 10.2Z" fill="white"/>
<path d="M19.3121 35C18.9721 36.5413 18.4734 37.89 17.8161 39.046C17.1587 40.2247 16.3767 41.1427 15.4701 41.8C14.4501 42.5707 13.0221 43.2393 11.1861 43.806C9.35008 44.3953 7.71808 44.69 6.29008 44.69C5.58741 44.69 4.93008 44.52 4.31808 44.18C3.72874 43.84 3.09408 43.2393 2.41408 42.378C1.73408 41.5393 0.929411 40.3267 7.79629e-05 38.74C4.73741 38.4907 8.81741 38.026 12.2401 37.346C15.6627 36.666 17.9861 35.884 19.2101 35C19.2101 34.864 19.1874 34.6373 19.1421 34.32C18.0767 34.5467 16.8527 34.7167 15.4701 34.83C14.0874 34.9433 12.8407 35 11.7301 35C10.0981 35 8.86275 34.592 8.02408 33.776C7.20808 32.9373 6.80008 31.8153 6.80008 30.41C6.80008 29.118 7.06075 27.5087 7.58208 25.582C8.10341 23.6327 8.84008 21.944 9.79208 20.516C10.7441 19.0653 11.8434 18.34 13.0901 18.34C14.1554 18.34 15.1414 18.714 16.0481 19.462C16.9774 20.1873 17.7594 21.2187 18.3941 22.556C19.0514 23.8707 19.4934 25.3553 19.7201 27.01H22.4401L20.7401 35H19.3121ZM7.65008 26.33C7.65008 26.6927 7.97874 26.9873 8.63608 27.214C9.29341 27.418 10.2681 27.52 11.5601 27.52C13.7134 27.52 15.6174 27.4407 17.2721 27.282C16.0027 25.174 14.0987 24.12 11.5601 24.12C10.9027 24.12 10.2681 24.2333 9.65608 24.46C9.06675 24.6867 8.57941 24.97 8.19408 25.31C7.83141 25.65 7.65008 25.99 7.65008 26.33ZM20.7414 35C20.5827 35 20.4581 34.8073 20.3674 34.422C20.2767 34.0367 20.2314 33.606 20.2314 33.13C20.2314 32.0193 20.3334 30.9993 20.5374 30.07C20.7414 29.118 21.0134 28.37 21.3534 27.826C21.6934 27.282 22.0561 27.01 22.4414 27.01H27.5414L25.8414 35H20.7414ZM25.8547 35C25.696 35 25.5714 34.8073 25.4807 34.422C25.39 34.0367 25.3447 33.606 25.3447 33.13C25.3447 32.0193 25.4467 30.9993 25.6507 30.07C25.8547 29.118 26.1267 28.37 26.4667 27.826C26.8067 27.282 27.1694 27.01 27.5547 27.01H32.6547L30.9547 35H25.8547ZM30.968 35C30.8093 35 30.6846 34.8073 30.594 34.422C30.5033 34.0367 30.458 33.606 30.458 33.13C30.458 32.0193 30.56 30.9993 30.764 30.07C30.968 29.118 31.24 28.37 31.58 27.826C31.92 27.282 32.2826 27.01 32.668 27.01H37.768L36.068 35H30.968ZM36.0812 35C35.9226 35 35.7979 34.8073 35.7072 34.422C35.6166 34.0367 35.5712 33.606 35.5712 33.13C35.5712 32.0193 35.6732 30.9993 35.8772 30.07C36.0812 29.118 36.3532 28.37 36.6932 27.826C37.0332 27.282 37.3959 27.01 37.7812 27.01H42.8813L41.1813 35H36.0812ZM41.1945 35C41.0359 35 40.9112 34.8073 40.8205 34.422C40.7299 34.0367 40.6845 33.606 40.6845 33.13C40.6845 32.0193 40.7865 30.9993 40.9905 30.07C41.1945 29.118 41.4665 28.37 41.8065 27.826C42.1465 27.282 42.5092 27.01 42.8945 27.01H47.9945L46.2945 35H41.1945ZM46.3078 35C46.1491 35 46.0245 34.8073 45.9338 34.422C45.8431 34.0367 45.7978 33.606 45.7978 33.13C45.7978 32.0193 45.8998 30.9993 46.1038 30.07C46.3078 29.118 46.5798 28.37 46.9198 27.826C47.2598 27.282 47.6225 27.01 48.0078 27.01H53.1078L51.4078 35H46.3078ZM63.4911 35C61.9724 35 60.7824 34.5467 59.9211 33.64C59.0598 32.7107 58.6064 31.3393 58.5611 29.526C57.8584 31.4527 56.9744 32.8467 55.9091 33.708C54.8664 34.5693 53.4271 35 51.5911 35H51.4211C51.2624 35 51.1378 34.8073 51.0471 34.422C50.9564 34.0367 50.9111 33.606 50.9111 33.13C50.9111 32.0193 51.0131 30.9993 51.2171 30.07C51.4211 29.118 51.6931 28.37 52.0331 27.826C52.3731 27.282 52.7358 27.01 53.1211 27.01H53.2911C55.1271 27.01 56.4304 26.7947 57.2011 26.364C57.9944 25.9107 58.4478 25.1627 58.5611 24.12L58.9011 21.23L60.0911 20.72V22.93C60.0911 24.426 60.5104 25.48 61.3491 26.092C62.2104 26.704 63.4911 27.01 65.1911 27.01L63.4911 35ZM57.7111 19.36C56.8498 18.9293 55.9771 18.3853 55.0931 17.728C54.2318 17.048 53.6311 16.4587 53.2911 15.96L56.0111 12.39C56.3511 12.8887 56.9518 13.478 57.8131 14.158C58.6971 14.8153 59.5698 15.3593 60.4311 15.79L57.7111 19.36ZM63.507 35C63.3484 35 63.2237 34.8073 63.133 34.422C63.0424 34.0367 62.997 33.606 62.997 33.13C62.997 32.0193 63.099 30.9993 63.303 30.07C63.507 29.118 63.779 28.37 64.119 27.826C64.459 27.282 64.8217 27.01 65.207 27.01H70.307L68.607 35H63.507ZM68.6203 35C68.4616 35 68.337 34.8073 68.2463 34.422C68.1556 34.0367 68.1103 33.606 68.1103 33.13C68.1103 32.0193 68.2123 30.9993 68.4163 30.07C68.6203 29.118 68.8923 28.37 69.2323 27.826C69.5723 27.282 69.935 27.01 70.3203 27.01H75.4203L73.7203 35H68.6203ZM73.7336 35C73.5749 35 73.4503 34.8073 73.3596 34.422C73.2689 34.0367 73.2236 33.606 73.2236 33.13C73.2236 32.0193 73.3256 30.9993 73.5296 30.07C73.7336 29.118 74.0056 28.37 74.3456 27.826C74.6856 27.282 75.0483 27.01 75.4336 27.01H80.5336L78.8336 35H73.7336ZM78.8469 35C78.6882 35 78.5635 34.8073 78.4729 34.422C78.3822 34.0367 78.3369 33.606 78.3369 33.13C78.3369 32.0193 78.4389 30.9993 78.6429 30.07C78.8469 29.118 79.1189 28.37 79.4589 27.826C79.7989 27.282 80.1615 27.01 80.5469 27.01H85.6469L83.9469 35H78.8469ZM83.9602 35C83.8015 35 83.6768 34.8073 83.5862 34.422C83.4955 34.0367 83.4502 33.606 83.4502 33.13C83.4502 32.0193 83.5522 30.9993 83.7562 30.07C83.9602 29.118 84.2322 28.37 84.5722 27.826C84.9122 27.282 85.2748 27.01 85.6602 27.01H90.7602L89.0602 35H83.9602ZM101.143 35C99.6248 35 98.4348 34.5467 97.5734 33.64C96.7121 32.7107 96.2588 31.3393 96.2134 29.526C95.5108 31.4527 94.6268 32.8467 93.5614 33.708C92.5188 34.5693 91.0794 35 89.2434 35H89.0734C88.9148 35 88.7901 34.8073 88.6994 34.422C88.6088 34.0367 88.5634 33.606 88.5634 33.13C88.5634 32.0193 88.6654 30.9993 88.8694 30.07C89.0734 29.118 89.3454 28.37 89.6854 27.826C90.0254 27.282 90.3881 27.01 90.7734 27.01H90.9434C92.7794 27.01 94.0828 26.7947 94.8534 26.364C95.6468 25.9107 96.1001 25.1627 96.2134 24.12L96.5534 21.23L97.7434 20.72V22.93C97.7434 24.426 98.1628 25.48 99.0014 26.092C99.8628 26.704 101.143 27.01 102.843 27.01L101.143 35ZM87.7134 36.7C88.0534 37.1987 88.5408 37.7313 89.1754 38.298C89.7874 38.8647 90.4448 39.352 91.1474 39.76L93.3234 36.7C93.6408 37.176 94.2414 37.7087 95.1254 38.298C96.0321 38.8873 96.9048 39.3747 97.7434 39.76L95.1934 43.33C93.6068 42.8087 92.2128 41.8793 91.0114 40.542L88.9034 43.33C88.1781 43.0127 87.4641 42.5593 86.7614 41.97C86.0588 41.3807 85.5261 40.814 85.1634 40.27L87.7134 36.7ZM101.159 35C101.001 35 100.876 34.8073 100.785 34.422C100.695 34.0367 100.649 33.606 100.649 33.13C100.649 32.0193 100.751 30.9993 100.955 30.07C101.159 29.118 101.431 28.37 101.771 27.826C102.111 27.282 102.474 27.01 102.859 27.01H107.959L106.259 35H101.159ZM106.273 35C106.114 35 105.989 34.8073 105.899 34.422C105.808 34.0367 105.763 33.606 105.763 33.13C105.763 32.0193 105.865 30.9993 106.069 30.07C106.273 29.118 106.545 28.37 106.885 27.826C107.225 27.282 107.587 27.01 107.973 27.01H113.073L111.373 35H106.273ZM111.386 35C111.227 35 111.103 34.8073 111.012 34.422C110.921 34.0367 110.876 33.606 110.876 33.13C110.876 32.0193 110.978 30.9993 111.182 30.07C111.386 29.118 111.658 28.37 111.998 27.826C112.338 27.282 112.701 27.01 113.086 27.01H118.186L116.486 35H111.386ZM136.219 35C135.063 35 133.941 34.7053 132.853 34.116C131.765 33.504 130.564 32.5067 129.249 31.124C127.957 29.7413 126.416 27.8147 124.625 25.344C124.399 26.704 124.047 28.0187 123.571 29.288C123.095 30.5347 122.574 31.6 122.007 32.484C121.441 33.368 120.908 33.9233 120.409 34.15C119.185 34.7167 117.882 35 116.499 35C116.341 35 116.216 34.8073 116.125 34.422C116.035 34.0367 115.989 33.606 115.989 33.13C115.989 32.0193 116.091 30.9993 116.295 30.07C116.499 29.118 116.771 28.37 117.111 27.826C117.451 27.282 117.814 27.01 118.199 27.01C119.673 27.01 120.931 26.976 121.973 26.908C123.039 26.84 123.821 26.704 124.319 26.5C124.025 25.9107 123.447 25.1173 122.585 24.12C121.747 23.1 120.511 21.74 118.879 20.04L121.939 11.88L135.879 7.46L134.349 13.58L122.109 16.81L123.571 18.17C124.297 18.85 124.999 19.496 125.679 20.108C126.359 20.72 127.039 21.3207 127.719 21.91C129.533 23.4287 130.961 24.5393 132.003 25.242C133.046 25.9447 133.987 26.4207 134.825 26.67C135.687 26.8967 136.718 27.01 137.919 27.01L136.219 35ZM136.222 35C136.063 35 135.939 34.8073 135.848 34.422C135.757 34.0367 135.712 33.606 135.712 33.13C135.712 32.0193 135.814 30.9993 136.018 30.07C136.222 29.118 136.494 28.37 136.834 27.826C137.174 27.282 137.537 27.01 137.922 27.01H143.022L141.322 35H136.222ZM141.335 35C141.176 35 141.052 34.8073 140.961 34.422C140.87 34.0367 140.825 33.606 140.825 33.13C140.825 32.0193 140.927 30.9993 141.131 30.07C141.335 29.118 141.607 28.37 141.947 27.826C142.287 27.282 142.65 27.01 143.035 27.01H148.135L146.435 35H141.335ZM146.448 35C146.29 35 146.165 34.8073 146.074 34.422C145.984 34.0367 145.938 33.606 145.938 33.13C145.938 32.0193 146.04 30.9993 146.244 30.07C146.448 29.118 146.72 28.37 147.06 27.826C147.4 27.282 147.763 27.01 148.148 27.01H153.248L151.548 35H146.448ZM174.002 18.34C174.183 19.088 174.342 19.87 174.478 20.686C174.614 21.502 174.682 22.1933 174.682 22.76C174.682 24.596 174.376 26.466 173.764 28.37C173.174 30.2513 172.472 31.8267 171.656 33.096C170.862 34.3653 170.228 35 169.752 35C168.482 35 167.428 34.592 166.59 33.776C165.774 32.96 165.309 31.8947 165.196 30.58C164.697 32.1213 164.074 33.2433 163.326 33.946C162.6 34.6487 161.739 35 160.742 35C159.676 35 158.826 34.6033 158.192 33.81C157.58 33.0167 157.24 31.8267 157.172 30.24C156.605 31.9173 155.846 33.13 154.894 33.878C153.964 34.626 152.854 35 151.562 35C151.403 35 151.278 34.8073 151.188 34.422C151.097 34.0367 151.052 33.606 151.052 33.13C151.052 32.0193 151.154 30.9993 151.358 30.07C151.562 29.118 151.834 28.37 152.174 27.826C152.514 27.282 152.876 27.01 153.262 27.01C154.939 27.01 156.22 26.6813 157.104 26.024C157.988 25.3667 158.577 24.4487 158.872 23.27L159.212 21.91H159.382V23.27C159.382 25.7633 160.458 27.01 162.612 27.01C163.858 27.01 164.788 26.7607 165.4 26.262C166.034 25.7407 166.522 24.9133 166.862 23.78L167.202 22.59H167.372V23.44C167.372 24.7093 167.757 25.6273 168.528 26.194C169.321 26.738 170.579 27.01 172.302 27.01C173.05 27.01 173.56 26.9533 173.832 26.84C173.741 26.5 173.333 25.718 172.608 24.494C171.905 23.27 171.35 22.4087 170.942 21.91L174.002 18.34ZM184.531 13.07C185.619 14.022 187.058 15.144 188.849 16.436C189.982 17.252 190.832 17.9093 191.399 18.408C191.966 18.9067 192.408 19.4733 192.725 20.108C193.042 20.7427 193.201 21.5133 193.201 22.42C193.201 23.7573 192.963 25.2307 192.487 26.84C192.034 28.4267 191.467 29.866 190.787 31.158C190.13 32.45 189.518 33.334 188.951 33.81C188.339 34.3313 187.421 34.7733 186.197 35.136C184.973 35.4987 183.738 35.68 182.491 35.68C180.972 35.68 179.794 35.272 178.955 34.456C178.139 33.6173 177.731 32.4387 177.731 30.92C177.731 29.9453 177.776 28.9933 177.867 28.064C177.98 27.1347 178.162 25.82 178.411 24.12H178.581V25.48C178.581 26.2053 178.898 26.7607 179.533 27.146C180.19 27.5087 181.29 27.69 182.831 27.69C184.871 27.69 186.888 27.4973 188.883 27.112C190.878 26.704 192.147 26.2733 192.691 25.82C192.623 25.5933 192.374 25.3553 191.943 25.106C191.512 24.834 190.821 24.4713 189.869 24.018C188.328 23.27 186.979 22.556 185.823 21.876C184.667 21.1733 183.556 20.3347 182.491 19.36L184.531 13.07Z" fill="#191717"/>
</svg>
