<svg width="46" height="47" viewBox="0 0 46 47" fill="none" xmlns="http://www.w3.org/2000/svg">
<rect width="46" height="47" rx="15" fill="#1F6FEB"/>
<path d="M22.6 10.2C23.88 11.32 25.5733 12.64 27.68 14.16C29.0133 15.12 30.0133 15.8933 30.68 16.48C31.3467 17.0667 31.8667 17.7333 32.24 18.48C32.6133 19.2267 32.8 20.1333 32.8 21.2C32.8 22.7733 32.52 24.5067 31.96 26.4C31.4267 28.2667 30.76 29.96 29.96 31.48C29.1867 33 28.4667 34.04 27.8 34.6C27.08 35.2133 26 35.7333 24.56 36.16C23.12 36.5867 21.6667 36.8 20.2 36.8C18.4133 36.8 17.0267 36.32 16.04 35.36C15.08 34.3733 14.6 32.9867 14.6 31.2C14.6 30.0533 14.6533 28.9333 14.76 27.84C14.8933 26.7467 15.1067 25.2 15.4 23.2H15.6V24.8C15.6 25.6533 15.9733 26.3067 16.72 26.76C17.4933 27.1867 18.7867 27.4 20.6 27.4C23 27.4 25.3733 27.1733 27.72 26.72C30.0667 26.24 31.56 25.7333 32.2 25.2C32.12 24.9333 31.8267 24.6533 31.32 24.36C30.8133 24.04 30 23.6133 28.88 23.08C27.0667 22.2 25.48 21.36 24.12 20.56C22.76 19.7333 21.4533 18.7467 20.2 17.6L22.6 10.2Z" fill="white"/>
</svg>
